<svg width="144" height="35" viewBox="0 0 144 35" fill="none" xmlns="http://www.w3.org/2000/svg">
<g clip-path="url(#clip0_907_202339)">
<path d="M143.175 22.3511H141.095C140.579 22.3511 140.085 22.1464 139.721 21.782C139.356 21.4176 139.152 20.9234 139.152 20.4081V11.8365H142.946C143.033 11.8366 143.12 11.8194 143.2 11.7862C143.28 11.7529 143.353 11.7041 143.415 11.6426C143.476 11.5811 143.525 11.508 143.559 11.4277C143.592 11.3473 143.609 11.2611 143.609 11.1741V7.96569C143.609 7.78997 143.539 7.62145 143.415 7.49719C143.291 7.37294 143.122 7.30313 142.946 7.30313H139.152V2.83722C139.152 2.72683 139.124 2.61819 139.071 2.52117C139.019 2.42416 138.943 2.34185 138.85 2.28171C138.757 2.22158 138.651 2.18554 138.541 2.17686C138.431 2.16817 138.321 2.18713 138.22 2.232L134.291 3.98017C134.139 4.04785 134.01 4.15817 133.919 4.29777C133.829 4.43736 133.78 4.60025 133.78 4.7667V21.2842C133.78 22.0196 133.925 22.7479 134.207 23.4273C134.488 24.1068 134.9 24.7241 135.42 25.2442C135.94 25.7642 136.558 26.1767 137.237 26.4582C137.917 26.7396 138.645 26.8845 139.38 26.8845H143.175C143.262 26.8845 143.348 26.8673 143.429 26.834C143.509 26.8007 143.582 26.7519 143.644 26.6904C143.705 26.6289 143.754 26.5558 143.787 26.4755C143.821 26.3951 143.838 26.3089 143.838 26.2219V23.0134C143.838 22.9264 143.821 22.8403 143.787 22.7599C143.754 22.6795 143.705 22.6065 143.644 22.545C143.582 22.4835 143.509 22.4347 143.429 22.4014C143.348 22.3682 143.262 22.351 143.175 22.3511Z" fill="white"/>
<path d="M132.467 20.7506C132.467 24.6364 128.81 27.1126 123.553 27.1126C119.41 27.1126 116.281 25.6364 114.919 23.0862C114.877 23.006 114.852 22.918 114.845 22.8275C114.838 22.7371 114.85 22.6462 114.879 22.5605C114.909 22.4748 114.956 22.3961 115.018 22.3294C115.079 22.2627 115.154 22.2093 115.237 22.1726L118.147 20.8775C118.287 20.8141 118.446 20.8021 118.595 20.8438C118.743 20.8854 118.873 20.978 118.96 21.1053C119.558 21.9439 120.404 22.5735 121.379 22.9053C121.668 23.0138 121.966 23.0959 122.27 23.1506C122.706 23.2291 123.148 23.2674 123.591 23.265C123.639 23.265 123.685 23.265 123.732 23.2634C125.156 23.2436 126.212 22.9244 126.767 22.3259C127.06 22.013 127.219 21.5981 127.21 21.1697C127.21 19.693 126.074 19.4823 123.415 19.1284C123.193 19.0992 122.959 19.0685 122.715 19.0363C122.434 19.003 122.157 18.9681 121.884 18.9315C120.723 18.7925 119.578 18.5497 118.461 18.2062C116.124 17.4374 114.601 16.0839 114.601 13.4368C114.601 9.55094 117.991 6.9985 123.02 7.03655C126.93 7.03655 129.934 8.3219 131.326 10.6259C131.375 10.7064 131.406 10.7963 131.418 10.8897C131.429 10.9831 131.42 11.0779 131.392 11.1677C131.364 11.2575 131.317 11.3402 131.255 11.4105C131.192 11.4808 131.115 11.537 131.029 11.5753L128.123 12.8686C127.988 12.9286 127.837 12.942 127.694 12.9066C127.551 12.8712 127.424 12.789 127.333 12.6731C126.471 11.5691 125.009 10.843 123.351 10.843C123.295 10.843 123.239 10.844 123.183 10.8461C121.61 10.8511 120.45 11.2869 119.977 12.04C119.822 12.2869 119.741 12.5731 119.743 12.8648C119.743 14.3505 121.419 14.5029 124.238 14.8449C125.546 14.955 126.842 15.1805 128.111 15.5188C130.69 16.2668 132.467 17.7014 132.467 20.7506Z" fill="white"/>
<path d="M111.947 7.32227H107.863C107.497 7.32227 107.2 7.6189 107.2 7.98483V26.241C107.2 26.607 107.497 26.9036 107.863 26.9036H111.947C112.313 26.9036 112.61 26.607 112.61 26.241V7.98483C112.61 7.6189 112.313 7.32227 111.947 7.32227Z" fill="white"/>
<path d="M109.906 0.37793C109.171 0.37793 109.079 0.381029 108.791 0.395148C108.566 0.399657 108.344 0.442156 108.134 0.520841C107.954 0.590356 107.791 0.696621 107.655 0.832832C107.519 0.969043 107.413 1.1322 107.343 1.31185C107.264 1.52208 107.222 1.74412 107.217 1.96856C107.204 2.25696 107.2 2.34908 107.2 3.08361C107.2 3.81814 107.203 3.91009 107.217 4.19884C107.222 4.42322 107.264 4.64521 107.343 4.85537C107.413 5.03507 107.519 5.19827 107.655 5.33451C107.791 5.47075 107.954 5.57704 108.134 5.64655C108.344 5.72524 108.566 5.76774 108.791 5.77225C109.079 5.78533 109.171 5.78843 109.906 5.78843C110.64 5.78843 110.732 5.78533 111.021 5.77225C111.245 5.76776 111.467 5.72526 111.678 5.64655C111.858 5.57718 112.021 5.47095 112.157 5.3347C112.294 5.19845 112.4 5.03518 112.47 4.85537C112.548 4.64521 112.591 4.42322 112.595 4.19884C112.608 3.91043 112.612 3.81832 112.612 3.08361C112.612 2.34891 112.608 2.25713 112.595 1.96856C112.591 1.74412 112.548 1.52208 112.47 1.31185C112.4 1.13209 112.294 0.96886 112.157 0.832641C112.021 0.696421 111.857 0.590217 111.678 0.520841C111.467 0.442133 111.245 0.399633 111.021 0.395148C110.733 0.381029 110.641 0.37793 109.906 0.37793Z" fill="white"/>
<path d="M104.336 0.237305H100.29C99.9236 0.237305 99.627 0.533943 99.627 0.899865V26.2407C99.627 26.6066 99.9236 26.9033 100.29 26.9033H104.336C104.702 26.9033 104.998 26.6066 104.998 26.2407V0.899865C104.998 0.533943 104.702 0.237305 104.336 0.237305Z" fill="white"/>
<path d="M97.8672 7.96581V11.5171C97.8671 11.6928 97.7973 11.8612 97.673 11.9854C97.5488 12.1096 97.3803 12.1794 97.2046 12.1795H95.7339C92.5337 12.1795 91.3146 14.313 91.3146 17.2843V26.222C91.3146 26.3977 91.2448 26.5662 91.1206 26.6904C90.9964 26.8146 90.8279 26.8845 90.6522 26.8846H86.6059C86.4302 26.8845 86.2618 26.8147 86.1375 26.6904C86.0133 26.5662 85.9435 26.3977 85.9434 26.222V7.96581C85.9435 7.79011 86.0133 7.62164 86.1375 7.49741C86.2618 7.37317 86.4302 7.30334 86.6059 7.30325H90.6493C90.825 7.30325 90.9935 7.37305 91.1178 7.49731C91.242 7.62156 91.3119 7.79008 91.3119 7.96581V9.01251C91.3119 9.01251 93.9177 7.84838 94.0296 7.80258C94.9623 7.44756 95.9554 7.27795 96.9531 7.30325H97.2052C97.3808 7.30338 97.5492 7.37325 97.6733 7.49749C97.7975 7.62173 97.8672 7.79017 97.8672 7.96581Z" fill="white"/>
<path fill-rule="evenodd" clip-rule="evenodd" d="M65.9004 12.0166C66.6945 10.5363 67.9 9.31752 69.3715 8.50733C70.8591 7.68117 72.582 7.26792 74.54 7.26758C76.5238 7.26758 78.2721 7.65541 79.7848 8.43106C81.254 9.1666 82.4842 10.3042 83.3323 11.7114C84.1839 13.1228 84.6226 14.782 84.6482 16.6892C84.651 17.1782 84.6201 17.6668 84.5559 18.1516C84.5421 18.2536 84.4917 18.3471 84.4142 18.4149C84.3367 18.4826 84.2373 18.52 84.1343 18.5201H70.2677V18.6731C70.3947 20.0976 70.8524 21.2165 71.6409 22.0299C72.4295 22.8432 73.5102 23.2499 74.8831 23.2501C75.9762 23.2501 76.8853 23.0148 77.6105 22.5444C78.2544 22.127 78.7306 21.496 78.9556 20.7624C78.9826 20.6768 79.0361 20.602 79.1083 20.5487C79.1805 20.4953 79.2678 20.4662 79.3575 20.4655H83.8295C83.8933 20.4656 83.9562 20.48 84.0137 20.5076C84.0712 20.5352 84.1217 20.5754 84.1616 20.6252C84.2014 20.675 84.2296 20.7331 84.244 20.7952C84.2584 20.8573 84.2587 20.9219 84.2449 20.9841C84.0033 22.0695 83.5294 23.0896 82.8559 23.9743C82.0673 25.0172 81.0247 25.8373 79.728 26.4346C78.4314 27.0319 76.9438 27.3307 75.2652 27.3311C73.0779 27.3311 71.1897 26.9242 69.6007 26.1104C68.0575 25.341 66.7815 24.1249 65.939 22.6202C65.0866 21.1076 64.6607 19.3466 64.6611 17.3372C64.6608 15.3034 65.0739 13.5298 65.9004 12.0166ZM77.8013 12.2455C78.6022 12.8942 79.0918 13.8159 79.2701 15.0109L70.3823 15.0109C70.535 13.8666 71.0118 12.9575 71.8127 12.2836C72.6136 11.6098 73.599 11.2728 74.7689 11.2728C75.9897 11.2727 77.0005 11.5969 77.8013 12.2455Z" fill="white"/>
<path d="M54.4296 7.20731C53.4972 7.19954 52.5707 7.35693 51.6931 7.6722C51.6208 7.69837 48.5628 9.05276 48.5628 9.05276V8.09852C48.5628 7.9228 48.493 7.75428 48.3688 7.63002C48.2445 7.50577 48.076 7.43596 47.9003 7.43596H43.854C43.767 7.43596 43.6808 7.4531 43.6004 7.4864C43.52 7.5197 43.447 7.5685 43.3855 7.63002C43.3239 7.69155 43.2751 7.76459 43.2418 7.84497C43.2085 7.92536 43.1914 8.01152 43.1914 8.09852V33.616C43.1914 33.7265 43.219 33.8351 43.2717 33.9322C43.3244 34.0292 43.4005 34.1115 43.4931 34.1716C43.5857 34.2318 43.6919 34.2678 43.802 34.2765C43.9121 34.2851 44.0226 34.2662 44.1234 34.2213L48.0523 32.472C48.2043 32.4043 48.3335 32.294 48.4241 32.1544C48.5148 32.0148 48.563 31.852 48.563 31.6855V25.4225L51.315 26.6478C52.3154 27.056 53.3875 27.2592 54.4678 27.2454C54.6564 27.2454 54.8431 27.2403 55.0278 27.2301C59.993 26.9631 63.5353 23.1406 63.5353 17.2647C63.5353 11.0931 59.7249 7.16925 54.4296 7.20731ZM53.2486 22.8651C50.3151 22.8651 48.4866 20.5406 48.4866 17.1889C48.4866 13.8746 50.3151 11.5883 53.2486 11.5883C56.1821 11.5883 58.087 13.8741 58.087 17.1889C58.0868 20.5406 56.1819 22.8651 53.2486 22.8651Z" fill="white"/>
<path d="M41.1198 7.96529V26.2249C41.1197 26.4006 41.0498 26.5691 40.9256 26.6933C40.8014 26.8175 40.6329 26.8873 40.4572 26.8873H36.4109C36.3239 26.8874 36.2378 26.8703 36.1574 26.837C36.077 26.8037 36.004 26.7549 35.9424 26.6934C35.8809 26.6319 35.8321 26.5589 35.7989 26.4785C35.7656 26.3981 35.7485 26.3119 35.7485 26.2249V25.4178L33.3278 26.4948C32.5519 26.829 31.7246 27.028 30.8816 27.0833C30.6337 27.1022 30.3766 27.1126 30.1095 27.1126C26.0713 27.1126 22.3379 25.0935 22.3379 18.1601V7.96529C22.3379 7.78957 22.4077 7.62105 22.532 7.49679C22.6562 7.37254 22.8247 7.30273 23.0005 7.30273H27.0468C27.2225 7.30273 27.391 7.37254 27.5153 7.49679C27.6395 7.62105 27.7093 7.78957 27.7093 7.96529V17.4362C27.7093 20.941 28.8523 22.6554 31.5189 22.6554C34.1855 22.6554 35.7475 20.7125 35.7475 17.0939V7.96529C35.7475 7.78957 35.8173 7.62105 35.9416 7.49679C36.0658 7.37254 36.2343 7.30273 36.4101 7.30273H40.4564C40.5434 7.30262 40.6297 7.31968 40.7102 7.35292C40.7907 7.38617 40.8638 7.43495 40.9254 7.49649C40.987 7.55803 41.0359 7.6311 41.0693 7.71155C41.1026 7.79199 41.1198 7.87821 41.1198 7.96529Z" fill="white"/>
<path d="M20.9722 18.7047C20.9342 23.6953 16.8197 27.1245 10.5724 27.1245C5.14864 27.1245 1.35786 24.8336 0.038593 21.148C-0.0175933 20.9907 -0.0122668 20.8179 0.0535059 20.6644C0.119279 20.5108 0.240641 20.3877 0.39329 20.3198L3.85417 18.779C4.01136 18.7092 4.18949 18.7033 4.35096 18.7625C4.51243 18.8216 4.6446 18.9412 4.71956 19.0959C5.28167 20.2238 6.1755 21.1525 7.28095 21.7574C7.94113 22.1229 8.6589 22.3729 9.40328 22.4967C9.41326 22.4986 9.42273 22.4998 9.4322 22.5014C9.44822 22.504 9.46389 22.5062 9.4799 22.509C9.84536 22.561 10.2139 22.5881 10.5831 22.5901C11.9367 22.5866 13.2571 22.1704 14.368 21.397C14.6442 21.134 14.8627 20.8164 15.0094 20.4644C15.1561 20.1124 15.228 19.7336 15.2203 19.3523C15.2203 17.1047 13.0489 16.6475 8.59126 15.7709C7.12909 15.4987 5.72338 15.1611 4.49176 14.6442C1.9376 13.572 0.13381 11.7257 0.13381 8.07538C0.13381 3.35206 4.05769 0 10.0769 0C15.0564 0 18.6008 2.05604 19.8971 5.44821C19.9566 5.6062 19.9534 5.78099 19.888 5.93663C19.8226 6.09227 19.7 6.21695 19.5455 6.28502L16.0674 7.83432C15.915 7.90171 15.7428 7.9093 15.585 7.85558C15.4272 7.80187 15.2953 7.69078 15.2157 7.54437C14.66 6.54535 13.8178 5.73572 12.7977 5.2199C11.8308 4.73119 10.7489 4.51539 9.66852 4.59573C8.58812 4.67607 7.55007 5.0495 6.66609 5.67584C6.40833 5.93576 6.20625 6.24549 6.07217 6.58611C5.9381 6.92673 5.87484 7.2911 5.88627 7.65697C5.88627 9.3838 7.21208 10.0264 9.9751 10.6387C10.6876 10.7964 11.4951 10.9522 12.4006 11.1237C12.8225 11.201 13.2392 11.2828 13.6491 11.372C14.3299 11.5202 14.9901 11.6881 15.6175 11.8885C18.7086 12.8764 21.0012 14.6517 20.9722 18.7047Z" fill="white"/>
</g>
<defs>
<clipPath id="clip0_907_202339">
<rect width="144" height="34.2799" fill="white"/>
</clipPath>
</defs>
</svg>
